<svg width="255" height="13" viewBox="0 0 255 13" fill="none" xmlns="http://www.w3.org/2000/svg">
<path d="M8.862 1.908C9.80467 2.85067 10.276 3.98933 10.276 5.324C10.276 6.65867 9.80467 7.79733 8.862 8.74C7.91933 9.68267 6.78067 10.154 5.446 10.154C4.11133 10.154 2.97267 9.68267 2.03 8.74C1.08733 7.788 0.616 6.64933 0.616 5.324C0.616 3.98933 1.08733 2.85067 2.03 1.908C2.97267 0.965333 4.11133 0.494 5.446 0.494C6.78067 0.494 7.91933 0.965333 8.862 1.908ZM8.554 8.432C9.41267 7.57333 9.842 6.53733 9.842 5.324C9.842 4.11067 9.41267 3.07467 8.554 2.216C7.69533 1.35733 6.65933 0.928 5.446 0.928C4.23267 0.928 3.19667 1.35733 2.338 2.216C1.47933 3.07467 1.05 4.11067 1.05 5.324C1.05 6.53733 1.47933 7.57333 2.338 8.432C3.19667 9.29067 4.23267 9.72 5.446 9.72C6.65933 9.72 7.69533 9.29067 8.554 8.432ZM7.168 7.032L7.532 7.382C7 7.998 6.314 8.306 5.474 8.306C4.662 8.306 3.97133 8.02133 3.402 7.452C2.842 6.87333 2.562 6.15933 2.562 5.31C2.562 4.46067 2.842 3.75133 3.402 3.182C3.97133 2.61267 4.662 2.328 5.474 2.328C6.314 2.328 6.99533 2.636 7.518 3.252L7.168 3.588C6.99067 3.34533 6.74333 3.154 6.426 3.014C6.118 2.86467 5.80067 2.79 5.474 2.79C4.82067 2.79 4.256 3.028 3.78 3.504C3.31333 3.97067 3.08 4.57267 3.08 5.31C3.08 6.02867 3.318 6.63067 3.794 7.116C4.27 7.60133 4.83 7.844 5.474 7.844C5.81 7.844 6.12733 7.76933 6.426 7.62C6.734 7.47067 6.98133 7.27467 7.168 7.032ZM19.0699 10H17.9079V1.698H14.9539V0.661999H22.0379V1.698H19.0699V10ZM27.4554 10.168C26.0834 10.168 24.9681 9.71067 24.1094 8.796C23.2508 7.88133 22.8214 6.72867 22.8214 5.338C22.8214 3.94733 23.2508 2.79467 24.1094 1.88C24.9681 0.965333 26.0834 0.508 27.4554 0.508C28.8181 0.508 29.9288 0.965333 30.7874 1.88C31.6554 2.79467 32.0894 3.94733 32.0894 5.338C32.0894 6.72867 31.6554 7.88133 30.7874 8.796C29.9288 9.71067 28.8181 10.168 27.4554 10.168ZM27.4554 9.132C28.4821 9.132 29.3081 8.77733 29.9334 8.068C30.5681 7.34933 30.8854 6.43933 30.8854 5.338C30.8854 4.22733 30.5681 3.31733 29.9334 2.608C29.3081 1.89867 28.4821 1.544 27.4554 1.544C26.4194 1.544 25.5888 1.89867 24.9634 2.608C24.3381 3.31733 24.0254 4.22733 24.0254 5.338C24.0254 6.43933 24.3381 7.34933 24.9634 8.068C25.5888 8.77733 26.4194 9.132 27.4554 9.132ZM38.1605 10H33.9045V0.661999H38.0625C38.8652 0.661999 39.4998 0.881333 39.9665 1.32C40.4425 1.75867 40.6805 2.33267 40.6805 3.042C40.6805 3.602 40.5218 4.078 40.2045 4.47C39.8872 4.85267 39.4998 5.09067 39.0425 5.184C39.5372 5.25867 39.9618 5.52 40.3165 5.968C40.6805 6.416 40.8625 6.92 40.8625 7.48C40.8625 8.236 40.6198 8.84733 40.1345 9.314C39.6585 9.77133 39.0005 10 38.1605 10ZM37.8665 4.708C38.3798 4.708 38.7765 4.568 39.0565 4.288C39.3365 4.008 39.4765 3.64867 39.4765 3.21C39.4765 2.77133 39.3318 2.412 39.0425 2.132C38.7625 1.84267 38.3705 1.698 37.8665 1.698H35.0665V4.708H37.8665ZM37.9225 8.964C38.4638 8.964 38.8885 8.81933 39.1965 8.53C39.5045 8.24067 39.6585 7.84867 39.6585 7.354C39.6585 6.89667 39.5045 6.514 39.1965 6.206C38.8978 5.898 38.4732 5.744 37.9225 5.744H35.0665V8.964H37.9225ZM47.4806 10H46.3186V0.661999H52.4366V1.698H47.4806V4.708H52.3386V5.744H47.4806V10ZM59.5878 10H58.5378V9.048C58.2578 9.36533 57.9032 9.63133 57.4738 9.846C57.0538 10.0607 56.6058 10.168 56.1298 10.168C54.6925 10.168 53.9738 9.44933 53.9738 8.012V3.238H55.0238V7.69C55.0238 8.25 55.1498 8.64667 55.4018 8.88C55.6632 9.11333 56.0412 9.23 56.5358 9.23C56.9278 9.23 57.3058 9.132 57.6698 8.936C58.0432 8.74 58.3325 8.49733 58.5378 8.208V3.238H59.5878V10ZM62.7348 10H61.6848V3.238H62.7348V4.33C63.3601 3.50867 64.1114 3.098 64.9888 3.098V4.176C64.8581 4.148 64.7181 4.134 64.5688 4.134C64.2514 4.134 63.9061 4.246 63.5328 4.47C63.1594 4.694 62.8934 4.94133 62.7348 5.212V10ZM71.9199 10H70.8699V5.576C70.8699 5.00667 70.7392 4.60533 70.4779 4.372C70.2165 4.12933 69.8432 4.008 69.3579 4.008C68.9659 4.008 68.5832 4.11067 68.2099 4.316C67.8459 4.52133 67.5612 4.76867 67.3559 5.058V10H66.3059V3.238H67.3559V4.218C67.6172 3.91 67.9672 3.644 68.4059 3.42C68.8445 3.18667 69.2972 3.07 69.7639 3.07C71.2012 3.07 71.9199 3.798 71.9199 5.254V10ZM74.5348 2.272C74.3481 2.272 74.1848 2.20667 74.0448 2.076C73.9048 1.936 73.8348 1.768 73.8348 1.572C73.8348 1.376 73.9048 1.208 74.0448 1.068C74.1848 0.927999 74.3481 0.857999 74.5348 0.857999C74.7308 0.857999 74.8988 0.927999 75.0388 1.068C75.1788 1.208 75.2488 1.376 75.2488 1.572C75.2488 1.768 75.1788 1.936 75.0388 2.076C74.8988 2.20667 74.7308 2.272 74.5348 2.272ZM75.0668 10H74.0168V3.238H75.0668V10ZM78.8693 10.168C78.3747 10.168 78.0013 10.0327 77.7493 9.762C77.4973 9.49133 77.3713 9.09933 77.3713 8.586V4.162H76.2513V3.238H77.3713V1.39H78.4213V3.238H79.7933V4.162H78.4213V8.362C78.4213 8.62333 78.4773 8.83333 78.5893 8.992C78.7107 9.15067 78.8833 9.23 79.1073 9.23C79.4153 9.23 79.6533 9.13667 79.8213 8.95L80.1293 9.734C79.8213 10.0233 79.4013 10.168 78.8693 10.168ZM86.8906 10H85.8406V9.048C85.5606 9.36533 85.2059 9.63133 84.7766 9.846C84.3566 10.0607 83.9086 10.168 83.4326 10.168C81.9952 10.168 81.2766 9.44933 81.2766 8.012V3.238H82.3266V7.69C82.3266 8.25 82.4526 8.64667 82.7046 8.88C82.9659 9.11333 83.3439 9.23 83.8386 9.23C84.2306 9.23 84.6086 9.132 84.9726 8.936C85.3459 8.74 85.6352 8.49733 85.8406 8.208V3.238H86.8906V10ZM90.0375 10H88.9875V3.238H90.0375V4.33C90.6628 3.50867 91.4142 3.098 92.2915 3.098V4.176C92.1608 4.148 92.0208 4.134 91.8715 4.134C91.5542 4.134 91.2088 4.246 90.8355 4.47C90.4622 4.694 90.1962 4.94133 90.0375 5.212V10ZM96.6606 10.168C95.6526 10.168 94.8266 9.84133 94.1826 9.188C93.5386 8.52533 93.2166 7.66667 93.2166 6.612C93.2166 5.62267 93.5339 4.78733 94.1686 4.106C94.8033 3.41533 95.5966 3.07 96.5486 3.07C97.5473 3.07 98.3359 3.41533 98.9146 4.106C99.5026 4.78733 99.7966 5.65067 99.7966 6.696V6.962H94.3226C94.3693 7.62467 94.6119 8.18 95.0506 8.628C95.4893 9.076 96.0586 9.3 96.7586 9.3C97.5986 9.3 98.2939 9.01533 98.8446 8.446L99.3486 9.132C98.6579 9.82267 97.7619 10.168 96.6606 10.168ZM98.7606 6.192C98.7513 5.61333 98.5553 5.09533 98.1726 4.638C97.7899 4.17133 97.2439 3.938 96.5346 3.938C95.8626 3.938 95.3306 4.16667 94.9386 4.624C94.5559 5.08133 94.3506 5.604 94.3226 6.192H98.7606ZM102.816 9.664C102.816 10.0747 102.708 10.4667 102.494 10.84C102.279 11.2227 102.004 11.5353 101.668 11.778L101.15 11.344C101.383 11.1947 101.584 10.994 101.752 10.742C101.929 10.4993 102.032 10.266 102.06 10.042C102.022 10.0607 101.957 10.07 101.864 10.07C101.668 10.07 101.504 10.0047 101.374 9.874C101.252 9.734 101.192 9.56133 101.192 9.356C101.192 9.15067 101.262 8.97333 101.402 8.824C101.551 8.67467 101.728 8.6 101.934 8.6C102.176 8.6 102.382 8.698 102.55 8.894C102.727 9.08067 102.816 9.33733 102.816 9.664ZM113.866 10H112.816V4.162H109.288V10H108.238V3.238H113.866V10ZM119.294 10.168C118.342 10.168 117.581 9.77133 117.012 8.978V12.576H115.962V3.238H117.012V4.246C117.264 3.89133 117.591 3.60667 117.992 3.392C118.393 3.17733 118.827 3.07 119.294 3.07C120.19 3.07 120.913 3.392 121.464 4.036C122.024 4.67067 122.304 5.52933 122.304 6.612C122.304 7.69467 122.024 8.558 121.464 9.202C120.913 9.846 120.19 10.168 119.294 10.168ZM119.028 9.23C119.691 9.23 120.218 8.98733 120.61 8.502C121.002 8.00733 121.198 7.37733 121.198 6.612C121.198 5.84667 121.002 5.22133 120.61 4.736C120.218 4.25067 119.691 4.008 119.028 4.008C118.627 4.008 118.235 4.11533 117.852 4.33C117.479 4.53533 117.199 4.78733 117.012 5.086V8.138C117.199 8.446 117.479 8.70733 117.852 8.922C118.235 9.12733 118.627 9.23 119.028 9.23ZM129.252 10H128.202V9.23C127.632 9.85533 126.886 10.168 125.962 10.168C125.336 10.168 124.786 9.96733 124.31 9.566C123.834 9.16467 123.596 8.61867 123.596 7.928C123.596 7.21867 123.829 6.67267 124.296 6.29C124.772 5.898 125.327 5.702 125.962 5.702C126.923 5.702 127.67 6.01 128.202 6.626V5.408C128.202 4.96 128.043 4.61 127.726 4.358C127.408 4.106 126.998 3.98 126.494 3.98C125.7 3.98 125.01 4.29267 124.422 4.918L123.932 4.19C124.65 3.44333 125.551 3.07 126.634 3.07C127.408 3.07 128.038 3.25667 128.524 3.63C129.009 4.00333 129.252 4.57733 129.252 5.352V10ZM126.34 9.412C127.18 9.412 127.8 9.132 128.202 8.572V7.298C127.8 6.738 127.18 6.458 126.34 6.458C125.854 6.458 125.453 6.598 125.136 6.878C124.828 7.14867 124.674 7.50333 124.674 7.942C124.674 8.37133 124.828 8.726 125.136 9.006C125.453 9.27667 125.854 9.412 126.34 9.412ZM136.719 11.722V10H131.357V3.238H132.407V9.076H135.935V3.238H136.985V9.076H137.769V11.722H136.719ZM144.874 10.168C143.941 10.168 143.171 9.86933 142.564 9.272C141.967 8.66533 141.631 7.9 141.556 6.976H140.254V10H139.204V3.238H140.254V6.052H141.57C141.682 5.184 142.032 4.47 142.62 3.91C143.218 3.35 143.969 3.07 144.874 3.07C145.882 3.07 146.694 3.41067 147.31 4.092C147.926 4.764 148.234 5.604 148.234 6.612C148.234 7.62 147.926 8.46467 147.31 9.146C146.694 9.82733 145.882 10.168 144.874 10.168ZM144.874 9.23C145.574 9.23 146.125 8.978 146.526 8.474C146.928 7.96067 147.128 7.34 147.128 6.612C147.128 5.884 146.928 5.268 146.526 4.764C146.125 4.26 145.574 4.008 144.874 4.008C144.193 4.008 143.647 4.26467 143.236 4.778C142.835 5.282 142.634 5.89333 142.634 6.612C142.634 7.34 142.835 7.96067 143.236 8.474C143.638 8.978 144.184 9.23 144.874 9.23ZM152.919 10.168C151.92 10.168 151.108 9.832 150.483 9.16C149.857 8.47867 149.545 7.62933 149.545 6.612C149.545 5.59467 149.857 4.75 150.483 4.078C151.108 3.406 151.92 3.07 152.919 3.07C153.964 3.07 154.79 3.462 155.397 4.246L154.725 4.862C154.277 4.246 153.693 3.938 152.975 3.938C152.34 3.938 151.817 4.13867 151.407 4.54C150.996 4.932 150.749 5.45933 150.665 6.122H154.067V7.032H150.651C150.725 7.72267 150.968 8.27333 151.379 8.684C151.789 9.09467 152.321 9.3 152.975 9.3C153.684 9.3 154.267 8.992 154.725 8.376L155.397 8.992C154.79 9.776 153.964 10.168 152.919 10.168ZM163.77 10H162.72V4.694L160.522 10H160.13L157.918 4.694V10H156.868V3.238H158.254L160.326 8.25L162.37 3.238H163.77V10ZM171.24 9.146C170.634 9.82733 169.826 10.168 168.818 10.168C167.81 10.168 166.998 9.82733 166.382 9.146C165.776 8.46467 165.472 7.62 165.472 6.612C165.472 5.604 165.776 4.764 166.382 4.092C166.998 3.41067 167.81 3.07 168.818 3.07C169.826 3.07 170.634 3.41067 171.24 4.092C171.856 4.764 172.164 5.604 172.164 6.612C172.164 7.62 171.856 8.46467 171.24 9.146ZM167.166 8.474C167.577 8.978 168.128 9.23 168.818 9.23C169.509 9.23 170.055 8.978 170.456 8.474C170.858 7.96067 171.058 7.34 171.058 6.612C171.058 5.884 170.858 5.268 170.456 4.764C170.055 4.26 169.509 4.008 168.818 4.008C168.128 4.008 167.577 4.26467 167.166 4.778C166.765 5.282 166.564 5.89333 166.564 6.612C166.564 7.34 166.765 7.96067 167.166 8.474ZM179.88 10.168C178.582 10.168 177.565 9.79933 176.828 9.062L177.346 8.39C177.98 8.99667 178.825 9.3 179.88 9.3C180.486 9.3 180.967 9.19267 181.322 8.978C181.686 8.76333 181.868 8.47867 181.868 8.124C181.868 7.37733 181.158 7.004 179.74 7.004H178.228V6.15H179.74C180.328 6.15 180.808 6.05667 181.182 5.87C181.555 5.674 181.742 5.38933 181.742 5.016C181.742 4.69867 181.555 4.442 181.182 4.246C180.808 4.04067 180.337 3.938 179.768 3.938C178.825 3.938 178.069 4.22733 177.5 4.806L176.954 4.162C177.654 3.44333 178.578 3.084 179.726 3.084C180.65 3.07467 181.396 3.23333 181.966 3.56C182.544 3.87733 182.834 4.32067 182.834 4.89C182.834 5.35667 182.642 5.73467 182.26 6.024C181.886 6.31333 181.471 6.486 181.014 6.542C181.49 6.57933 181.933 6.738 182.344 7.018C182.764 7.298 182.974 7.69 182.974 8.194C182.974 8.77267 182.694 9.24867 182.134 9.622C181.583 9.986 180.832 10.168 179.88 10.168ZM194.404 10H187.992V9.076C188.963 8.31067 189.714 7.704 190.246 7.256C190.788 6.79867 191.306 6.318 191.8 5.814C192.304 5.30067 192.659 4.848 192.864 4.456C193.07 4.05467 193.172 3.658 193.172 3.266C193.172 2.706 192.981 2.28133 192.598 1.992C192.216 1.70267 191.758 1.558 191.226 1.558C190.153 1.558 189.308 1.95 188.692 2.734L187.978 1.992C188.333 1.52533 188.795 1.166 189.364 0.913999C189.943 0.652666 190.564 0.521999 191.226 0.521999C192.076 0.521999 192.808 0.759999 193.424 1.236C194.05 1.712 194.362 2.38867 194.362 3.266C194.362 4.134 193.989 5.002 193.242 5.87C192.496 6.72867 191.357 7.76 189.826 8.964H194.404V10ZM199.751 10.168C199.135 10.168 198.589 10.028 198.113 9.748C197.646 9.45867 197.273 9.076 196.993 8.6C196.722 8.124 196.517 7.61067 196.377 7.06C196.246 6.50933 196.181 5.93533 196.181 5.338C196.181 4.74067 196.246 4.16667 196.377 3.616C196.517 3.06533 196.722 2.55667 196.993 2.09C197.273 1.614 197.646 1.236 198.113 0.956C198.589 0.666666 199.135 0.521999 199.751 0.521999C200.357 0.521999 200.899 0.666666 201.375 0.956C201.851 1.236 202.224 1.614 202.495 2.09C202.775 2.55667 202.98 3.06533 203.111 3.616C203.251 4.16667 203.321 4.74067 203.321 5.338C203.321 5.93533 203.251 6.50933 203.111 7.06C202.98 7.61067 202.775 8.124 202.495 8.6C202.224 9.076 201.851 9.45867 201.375 9.748C200.899 10.028 200.357 10.168 199.751 10.168ZM198.351 8.558C198.724 8.94067 199.191 9.132 199.751 9.132C200.311 9.132 200.777 8.94067 201.151 8.558C201.524 8.166 201.781 7.69933 201.921 7.158C202.061 6.61667 202.131 6.01 202.131 5.338C202.131 4.666 202.061 4.05933 201.921 3.518C201.781 2.97667 201.524 2.51467 201.151 2.132C200.777 1.74933 200.311 1.558 199.751 1.558C199.191 1.558 198.724 1.74933 198.351 2.132C197.977 2.51467 197.721 2.97667 197.581 3.518C197.441 4.05933 197.371 4.666 197.371 5.338C197.371 6.01 197.441 6.61667 197.581 7.158C197.721 7.69933 197.977 8.166 198.351 8.558ZM208.323 10.168C207.707 10.168 207.161 10.028 206.685 9.748C206.218 9.45867 205.845 9.076 205.565 8.6C205.294 8.124 205.089 7.61067 204.949 7.06C204.818 6.50933 204.753 5.93533 204.753 5.338C204.753 4.74067 204.818 4.16667 204.949 3.616C205.089 3.06533 205.294 2.55667 205.565 2.09C205.845 1.614 206.218 1.236 206.685 0.956C207.161 0.666666 207.707 0.521999 208.323 0.521999C208.93 0.521999 209.471 0.666666 209.947 0.956C210.423 1.236 210.796 1.614 211.067 2.09C211.347 2.55667 211.552 3.06533 211.683 3.616C211.823 4.16667 211.893 4.74067 211.893 5.338C211.893 5.93533 211.823 6.50933 211.683 7.06C211.552 7.61067 211.347 8.124 211.067 8.6C210.796 9.076 210.423 9.45867 209.947 9.748C209.471 10.028 208.93 10.168 208.323 10.168ZM206.923 8.558C207.296 8.94067 207.763 9.132 208.323 9.132C208.883 9.132 209.35 8.94067 209.723 8.558C210.096 8.166 210.353 7.69933 210.493 7.158C210.633 6.61667 210.703 6.01 210.703 5.338C210.703 4.666 210.633 4.05933 210.493 3.518C210.353 2.97667 210.096 2.51467 209.723 2.132C209.35 1.74933 208.883 1.558 208.323 1.558C207.763 1.558 207.296 1.74933 206.923 2.132C206.55 2.51467 206.293 2.97667 206.153 3.518C206.013 4.05933 205.943 4.666 205.943 5.338C205.943 6.01 206.013 6.61667 206.153 7.158C206.293 7.69933 206.55 8.166 206.923 8.558ZM216.923 10.168C216.298 10.168 215.747 10.0373 215.271 9.776C214.795 9.51467 214.417 9.16 214.137 8.712C213.867 8.25467 213.661 7.746 213.521 7.186C213.391 6.61667 213.325 6.00533 213.325 5.352C213.325 4.47467 213.456 3.68133 213.717 2.972C213.979 2.26267 214.399 1.67933 214.977 1.222C215.565 0.755333 216.279 0.521999 217.119 0.521999C218.193 0.521999 219.056 0.895333 219.709 1.642L219.121 2.51C218.58 1.87533 217.913 1.558 217.119 1.558C216.541 1.558 216.046 1.74 215.635 2.104C215.234 2.468 214.94 2.92067 214.753 3.462C214.576 3.994 214.487 4.582 214.487 5.226C214.487 5.38467 214.492 5.506 214.501 5.59C214.735 5.21667 215.094 4.88067 215.579 4.582C216.074 4.28333 216.597 4.134 217.147 4.134C218.034 4.134 218.762 4.39533 219.331 4.918C219.91 5.43133 220.199 6.164 220.199 7.116C220.199 7.96533 219.901 8.68867 219.303 9.286C218.706 9.874 217.913 10.168 216.923 10.168ZM216.881 9.132C217.553 9.132 218.076 8.93133 218.449 8.53C218.832 8.11933 219.023 7.662 219.023 7.158C219.023 6.50467 218.823 6.00533 218.421 5.66C218.02 5.31467 217.502 5.142 216.867 5.142C216.41 5.142 215.971 5.27267 215.551 5.534C215.131 5.786 214.791 6.122 214.529 6.542C214.595 7.23267 214.819 7.83933 215.201 8.362C215.584 8.87533 216.144 9.132 216.881 9.132ZM228.874 10.168C227.922 10.168 227.162 9.77133 226.592 8.978V12.576H225.542V3.238H226.592V4.246C226.844 3.89133 227.171 3.60667 227.572 3.392C227.974 3.17733 228.408 3.07 228.874 3.07C229.77 3.07 230.494 3.392 231.044 4.036C231.604 4.67067 231.884 5.52933 231.884 6.612C231.884 7.69467 231.604 8.558 231.044 9.202C230.494 9.846 229.77 10.168 228.874 10.168ZM228.608 9.23C229.271 9.23 229.798 8.98733 230.19 8.502C230.582 8.00733 230.778 7.37733 230.778 6.612C230.778 5.84667 230.582 5.22133 230.19 4.736C229.798 4.25067 229.271 4.008 228.608 4.008C228.207 4.008 227.815 4.11533 227.432 4.33C227.059 4.53533 226.779 4.78733 226.592 5.086V8.138C226.779 8.446 227.059 8.70733 227.432 8.922C227.815 9.12733 228.207 9.23 228.608 9.23ZM238.93 9.146C238.323 9.82733 237.516 10.168 236.508 10.168C235.5 10.168 234.688 9.82733 234.072 9.146C233.465 8.46467 233.162 7.62 233.162 6.612C233.162 5.604 233.465 4.764 234.072 4.092C234.688 3.41067 235.5 3.07 236.508 3.07C237.516 3.07 238.323 3.41067 238.93 4.092C239.546 4.764 239.854 5.604 239.854 6.612C239.854 7.62 239.546 8.46467 238.93 9.146ZM234.856 8.474C235.267 8.978 235.817 9.23 236.508 9.23C237.199 9.23 237.745 8.978 238.146 8.474C238.547 7.96067 238.748 7.34 238.748 6.612C238.748 5.884 238.547 5.268 238.146 4.764C237.745 4.26 237.199 4.008 236.508 4.008C235.817 4.008 235.267 4.26467 234.856 4.778C234.455 5.282 234.254 5.89333 234.254 6.612C234.254 7.34 234.455 7.96067 234.856 8.474ZM247.516 10H246.172L243.736 6.962L242.616 8.068V10H241.566V3.238H242.616V6.836L246.172 3.238H247.502L244.506 6.304L247.516 10ZM248.379 12.646L248.547 11.694C248.715 11.7687 248.906 11.806 249.121 11.806C249.364 11.806 249.564 11.7547 249.723 11.652C249.882 11.5493 250.017 11.3627 250.129 11.092L250.577 10.07L247.749 3.238H248.883L251.137 8.782L253.377 3.238H254.525L251.137 11.372C250.764 12.268 250.101 12.7253 249.149 12.744C248.869 12.744 248.612 12.7113 248.379 12.646Z" fill="white"/>
</svg>
